<?xml version="1.0" standalone="yes"?>
<svg xmlns="http://www.w3.org/2000/svg" width="2200" height="2200">
<path style="fill:#184e50; stroke:none;" d="M876 500C828.331 474.629 781.726 447.412 730 430.971C701.489 421.909 671.062 415.812 641 419.718C601.282 424.879 561.312 446.596 554.247 489C553.251 494.98 552.591 500.927 553.17 507C558.527 563.252 589.96 615.252 616.309 664C625.055 680.182 632.364 696.781 638.807 714C640.905 719.607 645.264 730.038 643.358 736C642.039 740.124 637.8 743.741 635.08 747C629.023 754.257 623.105 761.619 617.2 769C600.466 789.918 585.578 812.276 571.425 835C526.041 907.87 491 996.18 491 1083C491 1126.3 498.932 1169.55 523.746 1206C530.862 1216.45 539.441 1225.9 549 1234.13C570.774 1252.87 597.805 1266.43 626 1272.33C643.056 1275.91 659.725 1276.91 677 1278.09C738.919 1282.33 803.734 1273.35 864 1292.03C939.104 1315.3 985.733 1389.9 1065 1402.85C1112.27 1410.58 1159.84 1402.38 1201 1377.55C1225.62 1362.7 1246.66 1342.56 1270 1325.91C1288.57 1312.66 1309.6 1301.43 1331 1293.46C1348.73 1286.86 1368.3 1284.62 1387 1282.83C1407.87 1280.84 1429.03 1279.25 1450 1279C1519.78 1278.17 1595.86 1283.96 1652 1233.83C1663.24 1223.79 1672.99 1211.8 1680.94 1199C1703.17 1163.19 1709 1122.33 1709 1081C1709 989.601 1669.51 900.338 1622.09 824C1608.67 802.407 1593.2 782.068 1577.65 762C1573.14 756.178 1568.32 750.641 1563.59 745C1561.31 742.286 1558.25 739.4 1557.03 736C1555.35 731.322 1558.53 724.633 1559.58 720C1563.24 703.776 1571.84 687.811 1579.25 673C1597.34 636.823 1618.88 602.011 1633.05 564C1638.28 549.981 1643.78 534.902 1645.71 520C1647.37 507.258 1648.23 492.474 1644.56 480C1633.31 441.777 1592.05 422.756 1555 419.17C1494.7 413.334 1436.35 441.511 1384 467.753C1363.58 477.991 1344.08 491.22 1323 500C1324.15 490.982 1325.6 482.005 1326.87 473C1327.5 468.487 1327.47 462.139 1329.99 458.213C1333.66 452.494 1344.42 449.433 1350 445.565C1364.4 435.58 1377.41 424.595 1388.54 411C1425.04 366.398 1438.66 302.285 1420.64 247C1401.36 187.834 1353.07 143.783 1293 128.745C1281.03 125.748 1267.32 124.292 1255 124.054C1249.52 123.948 1243.37 126.376 1238 124.396C1231.81 122.116 1226.12 114.762 1221 110.611C1211.09 102.57 1200.28 95.7344 1189 89.7808C1141.24 64.5798 1083.58 61.6736 1033 79.6921C1015.09 86.0713 998.277 95.479 983 106.735C978.13 110.323 973.553 114.308 969 118.285C966.253 120.684 963.67 123.762 960 124.682C953.924 126.205 946.246 125 940 125C930.279 125 920.516 126.029 911 128.003C864.473 137.655 822.027 167.26 797.45 208C760.868 268.639 764.259 346.87 806.155 404C817.045 418.85 830.08 431.475 845 442.255C850.12 445.954 855.573 449.175 861 452.397C863.78 454.047 867.231 455.488 869.142 458.213C871.815 462.024 871.539 468.511 872.05 473C873.071 481.965 874.346 491.121 876 500M1251 141C1276.67 141 1301.98 146.759 1325 158.27C1399.54 195.538 1430.36 288.861 1397.14 364C1386.73 387.532 1370.41 408.769 1350 424.5C1343.72 429.345 1336.96 433.867 1330 437.688C1324.99 440.438 1319.05 442.375 1315.43 447.043C1311.24 452.446 1311.45 461.472 1310.91 468C1310.26 476.004 1308.33 484.021 1307.28 492C1306.61 497.093 1306.71 503.064 1304.85 507.895C1302.68 513.552 1294.04 515.993 1289 518.309C1273.81 525.289 1257.1 533.944 1240 533.999C1225.42 534.046 1211.24 529.027 1197 526.463C1171.76 521.92 1145.59 519.16 1120 518.039C1083.48 516.44 1046.03 519.269 1010 525.286C995.639 527.683 981.435 531.988 967 533.714C948.416 535.937 929.304 527.259 913 519.244C907.727 516.651 899.752 514.247 895.6 510.034C892.274 506.66 892.613 498.46 892 494C890.58 483.667 889.216 473.32 887.729 463C887.033 458.167 886.994 452.224 884.262 448.015C880.827 442.725 874.355 440.513 869 437.741C861.974 434.106 855.188 429.473 849 424.55C828.166 407.976 812.358 387.148 801.309 363C772.508 300.057 792.1 222.784 844 178.3C872.84 153.581 910.306 141 948 141C942.504 150.646 935.306 159.241 929.862 169C918.452 189.453 910.568 212.774 907.715 236C906.714 244.152 901.734 264.151 911.044 268.806C916.698 271.632 921.144 266.05 921.931 261C922.919 254.658 922.51 248.324 923.286 242C925.003 228.019 928.164 214.276 932.864 201C955.938 135.825 1017.1 91.6326 1085 85.1697C1156.65 78.3508 1227.64 119.738 1258.89 184C1267.89 202.492 1274.5 223.363 1275.91 244C1276.41 251.242 1274.07 264.817 1282.04 268.806C1286.62 271.095 1291.33 267.441 1292.57 262.996C1294.92 254.508 1292.49 243.52 1291.27 235C1288.02 212.254 1280.64 190.196 1269.69 170C1264.17 159.819 1257.05 150.809 1251 141M1097 317.758C1087.84 321.031 1091 336.425 1091 344L1091 425C1091 432.777 1088.24 452.246 1101.98 448.562C1111.15 446.105 1108 430.117 1108 423L1108 341C1108 334.229 1110.12 313.072 1097 317.758M964.059 359.028C955.613 363.634 962.743 375.857 965.2 382C973.981 403.954 982.419 426.048 991.2 448C993.735 454.338 997.829 471.068 1007.96 465.817C1017.56 460.837 1009.71 448.849 1007.06 442C998.659 420.272 990.052 398.63 981.4 377C978.753 370.384 974.65 353.251 964.059 359.028M1227.1 359.028C1220.41 362.73 1217.43 377.238 1214.81 384C1209.64 397.342 1204.6 410.777 1199.14 424C1194.99 434.044 1189.85 444.488 1187.06 455C1185.28 461.698 1190.49 469.258 1197.9 465.99C1204.97 462.867 1207.09 449.51 1209.85 443C1216.15 428.17 1221.62 412.962 1227.6 398C1231.34 388.646 1236.38 378.863 1238.54 369C1240.06 362.074 1234.43 354.973 1227.1 359.028M793 610C761.137 627.74 732.466 652.707 705 676.424C697.369 683.013 690.128 689.872 683 697C678.784 701.216 674.882 706.349 669 708C668.413 701.322 665.284 695.162 662.799 689C657.811 676.628 651.997 664.782 645.781 653C628.241 619.755 609.177 586.248 595.95 551C589.211 533.042 580.863 510.479 585.76 491C592.254 465.169 623.73 450.398 649 452.089C659.828 452.814 670.259 456.278 680 460.889C694.065 467.546 706.087 478.09 717 489C740.591 512.583 760.312 542.207 775.247 572C781.157 583.791 790.671 596.932 793 610M1530 708C1516.91 698.79 1505.94 685.824 1494 675.166C1467.4 651.426 1438.25 627.397 1407 610C1410.33 595.283 1420.47 580.16 1427.69 567C1449.57 527.17 1478.04 481.948 1520 460.969C1529.63 456.156 1540.22 452.777 1551 452.09C1575.12 450.553 1605.88 463.967 1613.64 488C1620.85 510.302 1610.12 537.377 1601.8 558C1589.68 588.026 1573.08 616.283 1558.26 645C1547.6 665.649 1539.37 686.856 1530 708M1059 844C1051.44 838.659 1045.38 831.154 1038 825.425C1026.3 816.35 1012.34 810.083 998 806.514C967.708 798.976 933.424 805.345 903 809.729C843.613 818.286 784.131 835.303 732 865.576C708.793 879.052 686.877 895.047 668.83 915C632.096 955.616 609 1007.66 609 1063C609 1081.13 609.656 1099.02 616.872 1116C642.995 1177.46 716.617 1203 779 1203C802.644 1203 829.027 1201.09 849 1186.96C860.273 1178.98 865.279 1164.94 871.247 1153C881.423 1132.65 892.465 1112.62 903.989 1093C918.814 1067.76 935.559 1039.65 958 1020.43C966.945 1012.77 978.489 1003.85 991 1006.9C1003.11 1009.85 1011.37 1020.12 1018 1030C1030.69 1048.92 1039.16 1069.8 1047.19 1091C1051.56 1102.53 1057.42 1114.77 1052.52 1127C1047.96 1138.42 1037.92 1148.09 1029 1156.17C1013.53 1170.19 993.538 1184.73 982.954 1203C970.343 1224.78 976.631 1249.24 993.09 1267C1014.15 1289.72 1045.62 1303.81 1076 1308.56C1105.15 1313.12 1133.89 1308.3 1161 1297.45C1175.49 1291.65 1189.73 1283.97 1201 1272.99C1217.47 1256.92 1229.79 1235.31 1221.3 1212C1215.66 1196.5 1202.89 1185.59 1191 1174.83C1182.82 1167.43 1174.81 1159.81 1167 1152C1159.08 1144.07 1149.73 1135.23 1146.76 1124C1143.7 1112.42 1149.25 1100.6 1153.4 1090C1162.19 1067.57 1170.76 1044.27 1185.68 1025C1192.45 1016.25 1202.16 1006.39 1214 1006.13C1219.55 1006.01 1225.24 1008.7 1230 1011.31C1242.88 1018.39 1253.17 1030.67 1262.2 1042C1283.98 1069.34 1301.11 1100.35 1317.69 1131C1325.78 1145.96 1331.98 1163.1 1341.78 1177C1356.1 1197.3 1381.46 1199.59 1404 1202.29C1420.32 1204.24 1436.83 1202.65 1453 1200.27C1499.39 1193.44 1547.15 1174.74 1573.92 1134C1588.22 1112.24 1591 1088.3 1591 1063C1591 1000.93 1562.45 940.739 1516 899.845C1455.1 846.232 1373.96 821.106 1295 809.729C1265.42 805.467 1232.52 799.284 1203 806.236C1188.69 809.605 1174.67 815.92 1163 824.887C1155.73 830.473 1149.25 839.154 1141 843C1138.09 836.013 1135.1 829.462 1133.51 822C1121.58 766.095 1153.24 707.558 1198 675.428C1236.8 647.578 1282.94 635.137 1330 631.911C1341.03 631.155 1351.92 631 1363 631C1368.14 631 1373.95 630.258 1379 631.278C1383.33 632.151 1387.35 635.34 1391 637.692C1398.4 642.459 1405.72 647.39 1413 652.344C1443.64 673.207 1472.81 697.808 1499 724C1570.25 795.247 1629.93 882.145 1660.03 979C1676.97 1033.52 1685.5 1092.18 1669.57 1148C1665.83 1161.1 1660.21 1173.66 1652.67 1185C1647.24 1193.16 1641.38 1201.18 1634 1207.71C1573.07 1261.62 1488.32 1244 1414 1249.09C1391.53 1250.63 1369.22 1252.3 1347 1256.46C1312.64 1262.9 1277.92 1281.34 1250 1301.88C1209.94 1331.36 1174.36 1365.97 1123 1372.72C1089.74 1377.09 1055.94 1372.09 1026 1356.74C1000.81 1343.83 979.362 1323.94 957 1306.88C936.869 1291.53 914.492 1278.2 891 1268.6C823.791 1241.16 750.513 1251.92 680 1247.09C664.919 1246.06 649.873 1245.55 635 1242.33C598.541 1234.44 566.793 1214.5 546.345 1183C537.568 1169.48 532.714 1154.31 528.178 1139C522.086 1118.44 521.104 1094.35 522.039 1073C524.162 1024.53 538.668 976.281 557.719 932C592.638 850.837 644.943 779.497 708 717.985C731.939 694.633 757.795 673.32 785 653.86C792.811 648.272 800.841 642.877 809 637.808C812.469 635.652 816.033 632.652 820 631.51C826.588 629.613 835.178 631 842 631C860.07 631 878.181 631.649 896 634.75C931.013 640.844 965.066 650.391 995 670.355C1039.37 699.947 1074.1 752.818 1068.83 808C1067.6 820.854 1063.91 832.183 1059 844M934 875.326C966.735 869.817 991.593 905.371 975.12 934C972.565 938.441 969.105 942.186 965 945.239C959.275 949.497 952.984 951.471 946 952.561C941.596 953.249 937.361 952.851 933 952.076C898.28 945.912 892.892 896.977 922 880.288C925.756 878.134 929.683 876.052 934 875.326M1257 875.375C1261.85 875.133 1267.41 875.985 1272 877.514C1304.36 888.291 1304.88 932.597 1277 948.532C1271.98 951.404 1265.74 952.579 1260 952.907C1220.96 955.13 1204.53 899.355 1239 880.352C1244.48 877.329 1250.76 875.687 1257 875.375M1069 1451.42C1058.48 1452.81 1047.6 1452.36 1037 1453.09C1021.33 1454.16 1005.57 1456.24 990 1458.29C906.737 1469.24 820.468 1495.87 751 1543.98C711.312 1571.46 676.43 1607.66 660.344 1654C649.3 1685.81 652 1719.84 652 1753L652 1906L652 2071L652 2106C652.003 2114.29 652.853 2122.98 660.04 2128.36C666.195 2132.97 673.763 2132 681 2132L721 2132L881 2132L1321 2132L1463 2132L1508 2132C1515.76 2132 1524.34 2133.02 1532 2131.67C1539.47 2130.36 1545.98 2124.5 1547.61 2117C1549.17 2109.82 1548 2101.33 1548 2094L1548 2049L1548 1782C1548 1729.18 1553.72 1675.12 1527.69 1627C1505.9 1586.7 1469.57 1555.82 1431 1532.19C1354.91 1485.58 1264.94 1463.62 1177 1454.83C1151.67 1452.3 1126.48 1451 1101 1451C1090.48 1451 1079.44 1450.05 1069 1451.42M1166 1492C1163.21 1497.98 1157.62 1502.38 1153 1507L1128 1532L1041 1619L1017 1643C1012.47 1647.53 1006.96 1651.98 1004.37 1658C1002.48 1662.38 1003 1667.34 1003 1672L1003 1697L1003 1785L1003 2093L691 2093L691 1800L691 1724C691 1701.71 690.521 1679.96 699.488 1659C723.063 1603.91 776.281 1567.83 829 1543.69C901.151 1510.65 981.865 1493.5 1061 1490.04C1084.93 1488.99 1109.06 1488.99 1133 1490.04C1144.01 1490.52 1154.96 1492 1166 1492M1509 2093L1041 2093L1041 1798L1041 1711L1041 1686C1041 1681.97 1040.19 1676.84 1041.6 1673C1043.45 1668 1048.93 1664.64 1052.57 1661C1062.29 1651.29 1071.88 1641.47 1081.72 1631.88C1112.77 1601.59 1143.22 1570.6 1173.91 1539.91C1183.93 1529.89 1193.9 1519.79 1204 1509.85C1207.34 1506.58 1211.41 1500.34 1216.18 1499.28C1223.44 1497.67 1233.84 1501.51 1241 1503C1259.18 1506.76 1277.22 1510.53 1295 1515.98C1369.16 1538.69 1451.99 1572.09 1492.57 1643C1508.23 1670.36 1509 1698.39 1509 1729L1509 1791L1509 2093M1173 1684.44C1167.27 1685.34 1161.93 1687.41 1157 1690.47C1136.21 1703.37 1133.31 1733.47 1150.3 1750.71C1159.48 1760.02 1172.24 1763.58 1185 1761.7C1190.01 1760.96 1194.8 1758.66 1199 1755.9C1227.48 1737.19 1219.51 1692.46 1186 1685.21C1181.64 1684.27 1177.44 1683.74 1173 1684.44M1170 1821.52C1164.77 1822.63 1159.43 1825.14 1155 1828.1C1150.81 1830.91 1147.54 1834.71 1144.93 1839C1127.93 1866.92 1152.1 1904.16 1185 1897.62C1190.78 1896.47 1197.25 1893.69 1201.99 1890.21C1205.35 1887.74 1207.94 1884.45 1210.25 1881C1229.07 1852.87 1203.42 1814.39 1170 1821.52M1172 1957.44C1166.18 1958.36 1160.88 1960.43 1156 1963.75C1128.98 1982.13 1136.53 2025.01 1168 2033.51C1172.6 2034.75 1177.27 2035.3 1182 2034.56C1189.23 2033.43 1196.16 2031 1202 2026.47C1232.93 2002.52 1210.36 1951.4 1172 1957.44z"/>
</svg>
